<svg width="25" height="25" viewBox="0 0 25 25" fill="none" xmlns="http://www.w3.org/2000/svg">
<path d="M5.31403 10.3106L2.31278 13.3119C1.08197 14.5427 0.390503 16.212 0.390503 17.9527C0.390503 19.6933 1.08197 21.3626 2.31278 22.5934C3.54359 23.8242 5.21293 24.5157 6.95356 24.5157C8.69419 24.5157 10.3635 23.8242 11.5943 22.5934L15.5931 18.5925C16.3353 17.8502 16.8886 16.9407 17.2066 15.9403C17.5245 14.9399 17.5979 13.8778 17.4204 12.8432C17.243 11.8086 16.82 10.8316 16.1868 9.99432C15.5537 9.15703 14.729 8.48384 13.7818 8.03125L12.5 9.31312C12.3698 9.4435 12.2566 9.58975 12.1631 9.74844C12.8949 9.95881 13.5591 10.3565 14.09 10.9023C14.621 11.448 15.0004 12.1228 15.1906 12.8601C15.3808 13.5974 15.3753 14.3715 15.1747 15.106C14.974 15.8405 14.5852 16.51 14.0465 17.0481L10.05 21.0469C9.22904 21.8678 8.11562 22.329 6.95465 22.329C5.79369 22.329 4.68027 21.8678 3.85934 21.0469C3.03841 20.2259 2.57722 19.1125 2.57722 17.9516C2.57722 16.7906 3.03841 15.6772 3.85934 14.8562L5.59403 13.1238C5.34928 12.2066 5.25472 11.2558 5.31403 10.3084V10.3106Z" fill="black"/>
<path d="M9.40683 6.21997C8.66462 6.96229 8.11131 7.87182 7.79335 8.87222C7.47539 9.87261 7.40204 10.9347 7.57948 11.9693C7.75691 13.0039 8.17995 13.9809 8.81308 14.8182C9.4462 15.6554 10.2709 16.3286 11.2181 16.7812L12.9134 15.0837C12.1717 14.8848 11.4955 14.4941 10.9526 13.951C10.4097 13.4079 10.0194 12.7315 9.82073 11.9898C9.6221 11.248 9.6222 10.467 9.82102 9.72533C10.0198 8.98362 10.4104 8.30731 10.9534 7.76435L14.95 3.7656C15.7709 2.94467 16.8843 2.48348 18.0453 2.48348C19.2062 2.48348 20.3197 2.94467 21.1406 3.7656C21.9615 4.58653 22.4227 5.69994 22.4227 6.86091C22.4227 8.02188 21.9615 9.1353 21.1406 9.95622L19.4059 11.6887C19.6509 12.6075 19.745 13.559 19.6859 14.504L22.6871 11.5028C23.918 10.272 24.6094 8.60264 24.6094 6.86201C24.6094 5.12138 23.918 3.45204 22.6871 2.22122C21.4563 0.990413 19.787 0.29895 18.0464 0.29895C16.3057 0.29895 14.6364 0.990413 13.4056 2.22122L9.40683 6.21997Z" fill="black"/>
</svg>
