<svg width="24" height="25" viewBox="0 0 24 25" fill="none" xmlns="http://www.w3.org/2000/svg">
<path d="M23.339 6.93509L21.178 9.18616C20.9577 9.41566 20.6014 9.41566 20.3811 9.18616L15.1777 3.76602C14.9574 3.53652 14.9574 3.16541 15.1777 2.93591L17.3388 0.684842C18.2154 -0.228281 19.6404 -0.228281 20.5217 0.684842L23.339 3.61953C24.2203 4.53265 24.2203 6.01709 23.339 6.93509ZM13.3214 4.86958L1.01144 17.6924L0.0176401 23.6252C-0.118304 24.426 0.55204 25.1194 1.32083 24.9827L7.0164 23.9426L19.3263 11.1198C19.5467 10.8903 19.5467 10.5192 19.3263 10.2897L14.123 4.86958C13.898 4.64008 13.5417 4.64008 13.3214 4.86958ZM5.81635 16.5937C5.55852 16.3251 5.55852 15.8954 5.81635 15.6268L13.0354 8.10701C13.2933 7.83845 13.7058 7.83845 13.9636 8.10701C14.2214 8.37558 14.2214 8.80528 13.9636 9.07385L6.74451 16.5937C6.48669 16.8622 6.07417 16.8622 5.81635 16.5937ZM4.12408 20.7003H6.37418V22.4728L3.35061 23.0246L1.89273 21.506L2.42244 18.3564H4.12408V20.7003Z" fill="black"/>
</svg>
