<svg width="183" height="44" viewBox="0 0 183 44" fill="none" xmlns="http://www.w3.org/2000/svg">
<path d="M183 22L162.75 41.0526L162.75 2.94744L183 22Z" fill="#F2ECFF"/>
<path fill-rule="evenodd" clip-rule="evenodd" d="M0.111708 41L20.25 22.0525L1.81251e-05 3H163V41H0.111708Z" fill="#DEE5D4"/>
<path d="M38.592 19.664C38.608 20.32 38.552 20.928 38.424 21.488C38.296 22.032 38.096 22.512 37.824 22.928C37.552 23.328 37.208 23.64 36.792 23.864C36.376 24.088 35.88 24.2 35.304 24.2C34.936 24.2 34.608 24.152 34.32 24.056C34.032 23.944 33.76 23.808 33.504 23.648C33.264 23.472 33.04 23.28 32.832 23.072C32.624 22.864 32.424 22.656 32.232 22.448C31.976 22.176 31.712 21.936 31.44 21.728C31.168 21.504 30.888 21.392 30.6 21.392C30.232 21.392 29.96 21.568 29.784 21.92C29.608 22.256 29.52 22.8 29.52 23.552H27.408C27.392 22.896 27.44 22.296 27.552 21.752C27.68 21.192 27.88 20.712 28.152 20.312C28.424 19.896 28.768 19.576 29.184 19.352C29.6 19.128 30.096 19.016 30.672 19.016C31.024 19.016 31.344 19.072 31.632 19.184C31.936 19.28 32.216 19.416 32.472 19.592C32.728 19.752 32.96 19.936 33.168 20.144C33.376 20.352 33.576 20.56 33.768 20.768C34.024 21.04 34.28 21.288 34.536 21.512C34.808 21.736 35.088 21.848 35.376 21.848C35.776 21.848 36.056 21.68 36.216 21.344C36.376 20.992 36.456 20.432 36.456 19.664H38.592ZM42.744 30.704H40.152L47.328 11.312H49.848L42.744 30.704ZM55.032 23.6C55.032 23.984 55.056 24.368 55.104 24.752C55.168 25.136 55.28 25.48 55.44 25.784C55.6 26.088 55.816 26.336 56.088 26.528C56.36 26.704 56.712 26.792 57.144 26.792C57.816 26.792 58.368 26.456 58.8 25.784C59.232 25.096 59.448 24 59.448 22.496C59.448 21.68 59.4 21 59.304 20.456C59.224 19.912 59.088 19.48 58.896 19.16C58.72 18.824 58.488 18.592 58.2 18.464C57.928 18.32 57.6 18.248 57.216 18.248C56.608 18.248 56.088 18.528 55.656 19.088C55.24 19.648 55.032 20.4 55.032 21.344V23.6ZM57.672 28.88C57.176 28.88 56.696 28.736 56.232 28.448C55.768 28.16 55.368 27.72 55.032 27.128V32.696H52.44V16.376H54.816L54.912 17.96C55.04 17.64 55.208 17.368 55.416 17.144C55.64 16.904 55.872 16.704 56.112 16.544C56.368 16.384 56.624 16.272 56.88 16.208C57.152 16.128 57.4 16.088 57.624 16.088C58.536 16.088 59.28 16.264 59.856 16.616C60.432 16.968 60.88 17.448 61.2 18.056C61.536 18.648 61.76 19.336 61.872 20.12C62 20.888 62.064 21.704 62.064 22.568C62.064 23.32 61.992 24.072 61.848 24.824C61.704 25.576 61.456 26.256 61.104 26.864C60.768 27.456 60.32 27.944 59.76 28.328C59.2 28.696 58.504 28.88 57.672 28.88ZM69.024 28.928C68.032 28.928 67.2 28.76 66.528 28.424C65.872 28.088 65.344 27.632 64.944 27.056C64.56 26.48 64.288 25.808 64.128 25.04C63.968 24.256 63.888 23.416 63.888 22.52C63.888 21.624 63.968 20.792 64.128 20.024C64.304 19.24 64.584 18.56 64.968 17.984C65.368 17.408 65.896 16.952 66.552 16.616C67.208 16.28 68.032 16.112 69.024 16.112C69.984 16.112 70.784 16.28 71.424 16.616C72.08 16.952 72.608 17.408 73.008 17.984C73.408 18.56 73.696 19.24 73.872 20.024C74.048 20.808 74.136 21.64 74.136 22.52C74.136 23.416 74.048 24.256 73.872 25.04C73.712 25.808 73.432 26.48 73.032 27.056C72.648 27.632 72.128 28.088 71.472 28.424C70.816 28.76 70 28.928 69.024 28.928ZM69.024 26.912C69.888 26.912 70.52 26.52 70.92 25.736C71.32 24.952 71.52 23.88 71.52 22.52C71.52 21.144 71.32 20.072 70.92 19.304C70.52 18.52 69.888 18.128 69.024 18.128C68.128 18.128 67.48 18.52 67.08 19.304C66.696 20.072 66.504 21.144 66.504 22.52C66.504 23.88 66.696 24.952 67.08 25.736C67.48 26.52 68.128 26.912 69.024 26.912ZM79.656 16.376L79.752 18.512C80.04 17.824 80.504 17.256 81.144 16.808C81.8 16.344 82.528 16.112 83.328 16.112C83.856 16.112 84.368 16.176 84.864 16.304C85.376 16.432 85.864 16.656 86.328 16.976V19.328H86.016C85.84 19.216 85.632 19.112 85.392 19.016C85.152 18.904 84.896 18.808 84.624 18.728C84.352 18.648 84.08 18.584 83.808 18.536C83.552 18.472 83.312 18.44 83.088 18.44C82.592 18.44 82.152 18.552 81.768 18.776C81.384 19 81.056 19.304 80.784 19.688C80.512 20.072 80.304 20.512 80.16 21.008C80.016 21.504 79.944 22.016 79.944 22.544V28.616H77.328V16.376H79.656ZM97.464 26.096V28.088C97.08 28.36 96.632 28.56 96.12 28.688C95.624 28.8 95.144 28.856 94.68 28.856C93.512 28.856 92.584 28.576 91.896 28.016C91.208 27.44 90.864 26.544 90.864 25.328V18.512H88.44V16.376H90.864V13.352L93.48 12.104V16.376H97.296V18.512H93.48V25.136C93.48 26.16 94.04 26.672 95.16 26.672C95.56 26.672 95.92 26.616 96.24 26.504C96.576 26.376 96.88 26.24 97.152 26.096H97.464ZM109.536 14.192C109.216 13.984 108.84 13.84 108.408 13.76C107.992 13.664 107.648 13.616 107.376 13.616C106.912 13.616 106.544 13.76 106.272 14.048C106.016 14.32 105.888 14.752 105.888 15.344V16.376H109.824V18.512H105.888V28.616H103.272V18.512H100.464V16.376H103.272V15.2C103.272 13.936 103.608 13.016 104.28 12.44C104.968 11.864 105.984 11.576 107.328 11.576C107.76 11.576 108.184 11.624 108.6 11.72C109.016 11.8 109.424 11.944 109.824 12.152V14.192H109.536ZM117.024 28.928C116.032 28.928 115.2 28.76 114.528 28.424C113.872 28.088 113.344 27.632 112.944 27.056C112.56 26.48 112.288 25.808 112.128 25.04C111.968 24.256 111.888 23.416 111.888 22.52C111.888 21.624 111.968 20.792 112.128 20.024C112.304 19.24 112.584 18.56 112.968 17.984C113.368 17.408 113.896 16.952 114.552 16.616C115.208 16.28 116.032 16.112 117.024 16.112C117.984 16.112 118.784 16.28 119.424 16.616C120.08 16.952 120.608 17.408 121.008 17.984C121.408 18.56 121.696 19.24 121.872 20.024C122.048 20.808 122.136 21.64 122.136 22.52C122.136 23.416 122.048 24.256 121.872 25.04C121.712 25.808 121.432 26.48 121.032 27.056C120.648 27.632 120.128 28.088 119.472 28.424C118.816 28.76 118 28.928 117.024 28.928ZM117.024 26.912C117.888 26.912 118.52 26.52 118.92 25.736C119.32 24.952 119.52 23.88 119.52 22.52C119.52 21.144 119.32 20.072 118.92 19.304C118.52 18.52 117.888 18.128 117.024 18.128C116.128 18.128 115.48 18.52 115.08 19.304C114.696 20.072 114.504 21.144 114.504 22.52C114.504 23.88 114.696 24.952 115.08 25.736C115.48 26.52 116.128 26.912 117.024 26.912ZM130.344 11.576V26.024C130.344 26.328 130.496 26.48 130.8 26.48H133.776V28.616H130.128C129.712 28.616 129.352 28.544 129.048 28.4C128.744 28.256 128.496 28.064 128.304 27.824C128.112 27.584 127.968 27.312 127.872 27.008C127.776 26.688 127.728 26.36 127.728 26.024V13.712H125.208V11.576H130.344ZM142.56 16.376V26.504H145.824V28.616H136.392V26.504H139.92V18.512H137.184V16.376H142.56ZM139.152 12.152C139.152 11.624 139.336 11.176 139.704 10.808C140.072 10.44 140.512 10.256 141.024 10.256C141.536 10.256 141.976 10.44 142.344 10.808C142.712 11.176 142.896 11.624 142.896 12.152C142.896 12.68 142.712 13.128 142.344 13.496C141.976 13.864 141.536 14.048 141.024 14.048C140.512 14.048 140.072 13.864 139.704 13.496C139.336 13.128 139.152 12.68 139.152 12.152ZM153.024 28.928C152.032 28.928 151.2 28.76 150.528 28.424C149.872 28.088 149.344 27.632 148.944 27.056C148.56 26.48 148.288 25.808 148.128 25.04C147.968 24.256 147.888 23.416 147.888 22.52C147.888 21.624 147.968 20.792 148.128 20.024C148.304 19.24 148.584 18.56 148.968 17.984C149.368 17.408 149.896 16.952 150.552 16.616C151.208 16.28 152.032 16.112 153.024 16.112C153.984 16.112 154.784 16.28 155.424 16.616C156.08 16.952 156.608 17.408 157.008 17.984C157.408 18.56 157.696 19.24 157.872 20.024C158.048 20.808 158.136 21.64 158.136 22.52C158.136 23.416 158.048 24.256 157.872 25.04C157.712 25.808 157.432 26.48 157.032 27.056C156.648 27.632 156.128 28.088 155.472 28.424C154.816 28.76 154 28.928 153.024 28.928ZM153.024 26.912C153.888 26.912 154.52 26.52 154.92 25.736C155.32 24.952 155.52 23.88 155.52 22.52C155.52 21.144 155.32 20.072 154.92 19.304C154.52 18.52 153.888 18.128 153.024 18.128C152.128 18.128 151.48 18.52 151.08 19.304C150.696 20.072 150.504 21.144 150.504 22.52C150.504 23.88 150.696 24.952 151.08 25.736C151.48 26.52 152.128 26.912 153.024 26.912Z" fill="#2D2A2E"/>
</svg>
